<svg width="234" height="128" viewBox="0 0 234 128" fill="none" xmlns="http://www.w3.org/2000/svg">
<path d="M28.0374 55V22.312H39.4614C41.9894 22.312 44.0534 22.648 45.6534 23.32C47.2534 23.96 48.4374 24.936 49.2054 26.248C49.9734 27.56 50.3574 29.208 50.3574 31.192C50.3574 32.824 49.9894 34.248 49.2534 35.464C48.5174 36.68 47.5254 37.64 46.2774 38.344C45.0294 39.016 43.6534 39.352 42.1494 39.352L42.3414 37.48C44.2614 37.48 45.8774 37.832 47.1894 38.536C48.5014 39.24 49.5094 40.216 50.2134 41.464C50.9174 42.712 51.2694 44.168 51.2694 45.832C51.2694 48.84 50.3414 51.128 48.4854 52.696C46.6294 54.232 43.9094 55 40.3254 55H28.0374ZM34.3254 25.72V51.256L32.0214 49H40.3254C41.7334 49 42.8374 48.648 43.6374 47.944C44.4694 47.208 44.8854 46.232 44.8854 45.016C44.8854 43.704 44.4854 42.712 43.6854 42.04C42.9174 41.368 41.8294 41.032 40.4214 41.032H32.0214V35.512H39.6054C41.0134 35.512 42.0854 35.224 42.8214 34.648C43.5574 34.04 43.9254 33.144 43.9254 31.96C43.9254 30.872 43.5574 29.992 42.8214 29.32C42.0854 28.648 41.0134 28.312 39.6054 28.312H32.2134L34.3254 25.72Z" fill="black"/>
<path d="M187.437 22.312L195.885 34.936H194.445L202.893 22.312H210.429L198.477 39.496L197.997 37.24L210.477 55H202.797L193.773 41.848H196.077L187.197 55H179.517L191.853 37.24L191.805 39.496L179.901 22.312H187.437Z" fill="black"/>
<path d="M100.152 38.68C100.152 36.216 100.568 33.96 101.4 31.912C102.232 29.832 103.4 28.04 104.904 26.536C106.408 25.032 108.184 23.864 110.232 23.032C112.312 22.2 114.584 21.784 117.048 21.784C119.48 21.784 121.72 22.2 123.768 23.032C125.816 23.864 127.592 25.032 129.096 26.536C130.6 28.04 131.768 29.832 132.6 31.912C133.432 33.96 133.848 36.216 133.848 38.68C133.848 41.112 133.432 43.368 132.6 45.448C131.768 47.496 130.6 49.288 129.096 50.824C127.592 52.328 125.816 53.496 123.768 54.328C121.72 55.16 119.48 55.576 117.048 55.576C114.584 55.576 112.312 55.16 110.232 54.328C108.184 53.496 106.408 52.328 104.904 50.824C103.4 49.288 102.232 47.496 101.4 45.448C100.568 43.368 100.152 41.112 100.152 38.68ZM106.584 38.68C106.584 40.792 107.032 42.664 107.928 44.296C108.824 45.896 110.056 47.144 111.624 48.04C113.224 48.936 115.032 49.384 117.048 49.384C119.064 49.384 120.84 48.936 122.376 48.04C123.944 47.144 125.176 45.896 126.072 44.296C126.968 42.664 127.416 40.792 127.416 38.68C127.416 36.536 126.968 34.664 126.072 33.064C125.176 31.432 123.944 30.168 122.376 29.272C120.84 28.376 119.064 27.928 117.048 27.928C115.032 27.928 113.224 28.392 111.624 29.32C110.056 30.216 108.824 31.464 107.928 33.064C107.032 34.664 106.584 36.536 106.584 38.68Z" fill="black"/>
<rect x="2" y="2" width="230" height="74" stroke="black" stroke-width="4"/>
<path d="M53.825 127.576C51.425 127.576 49.329 127.048 47.537 125.992C45.745 124.936 44.353 123.48 43.361 121.624C42.401 119.768 41.921 117.64 41.921 115.24C41.921 112.872 42.401 110.76 43.361 108.904C44.353 107.048 45.745 105.608 47.537 104.584C49.329 103.528 51.425 103 53.825 103C56.321 103 58.513 103.64 60.401 104.92C62.321 106.168 63.697 107.864 64.529 110.008L58.769 112.504C58.289 111.416 57.633 110.568 56.801 109.96C56.001 109.352 54.993 109.048 53.777 109.048C52.209 109.048 50.897 109.608 49.841 110.728C48.785 111.816 48.257 113.32 48.257 115.24C48.257 117.192 48.785 118.712 49.841 119.8C50.897 120.888 52.209 121.432 53.777 121.432C54.993 121.432 56.001 121.144 56.801 120.568C57.633 119.96 58.289 119.112 58.769 118.024L64.529 120.52C63.697 122.632 62.321 124.344 60.401 125.656C58.481 126.936 56.289 127.576 53.825 127.576ZM67.7818 127V94.312H74.0698V127H67.7818ZM82.9018 127V112.744C82.9018 111.304 82.6138 110.344 82.0378 109.864C81.4938 109.384 80.7898 109.144 79.9258 109.144C79.1258 109.144 78.3098 109.304 77.4778 109.624C76.6458 109.912 75.8618 110.344 75.1258 110.92C74.4218 111.464 73.8138 112.088 73.3018 112.792L71.7658 107.944C72.5978 106.984 73.5418 106.136 74.5978 105.4C75.6858 104.664 76.8378 104.088 78.0538 103.672C79.2698 103.224 80.5498 103 81.8938 103C83.4938 103 84.7738 103.272 85.7338 103.816C86.7258 104.36 87.4618 105.096 87.9418 106.024C88.4538 106.952 88.7898 108.008 88.9498 109.192C89.1098 110.344 89.1898 111.544 89.1898 112.792V127H82.9018ZM101.372 127.672C99.6444 127.672 98.1244 127.352 96.8124 126.712C95.5004 126.04 94.4924 125.112 93.7884 123.928C93.0844 122.712 92.7324 121.304 92.7324 119.704C92.7324 118.104 93.1004 116.712 93.8364 115.528C94.6044 114.344 95.6444 113.432 96.9564 112.792C98.2684 112.12 99.7564 111.784 101.42 111.784C103.692 111.784 105.532 112.312 106.94 113.368C108.38 114.392 109.356 115.864 109.868 117.784L106.94 117.4V111.736C106.94 110.84 106.62 110.04 105.98 109.336C105.34 108.632 104.3 108.28 102.86 108.28C101.964 108.28 100.972 108.392 99.8844 108.616C98.7964 108.808 97.6604 109.192 96.4764 109.768L94.6044 105.16C95.9804 104.488 97.4364 103.96 98.9724 103.576C100.54 103.192 102.108 103 103.676 103C105.82 103 107.596 103.384 109.004 104.152C110.412 104.92 111.468 105.976 112.172 107.32C112.876 108.664 113.228 110.2 113.228 111.928V127H108.236L106.892 122.536L109.868 121.672C109.324 123.56 108.316 125.032 106.844 126.088C105.404 127.144 103.58 127.672 101.372 127.672ZM103.1 122.872C104.252 122.872 105.18 122.584 105.884 122.008C106.588 121.432 106.94 120.664 106.94 119.704C106.94 118.712 106.588 117.944 105.884 117.4C105.18 116.824 104.252 116.536 103.1 116.536C101.948 116.536 101.02 116.824 100.316 117.4C99.6124 117.944 99.2604 118.712 99.2604 119.704C99.2604 120.664 99.6124 121.432 100.316 122.008C101.02 122.584 101.948 122.872 103.1 122.872ZM123.017 103.528L124.601 110.008V127H118.313V103.528H123.017ZM123.305 113.224L122.153 112.696V107.896L122.585 107.368C122.937 106.792 123.465 106.168 124.169 105.496C124.905 104.824 125.737 104.248 126.665 103.768C127.625 103.256 128.617 103 129.641 103C130.153 103 130.617 103.032 131.033 103.096C131.449 103.16 131.769 103.272 131.993 103.432V109.144H130.457C128.377 109.144 126.777 109.48 125.657 110.152C124.537 110.792 123.753 111.816 123.305 113.224ZM145.779 127.432C143.379 127.432 141.475 126.808 140.067 125.56C138.691 124.28 138.003 122.248 138.003 119.464V103.816L137.907 103.528L139.203 98.008H144.291V118.456C144.291 119.48 144.531 120.232 145.011 120.712C145.523 121.16 146.163 121.384 146.931 121.384C147.443 121.384 147.907 121.352 148.323 121.288C148.739 121.192 149.107 121.096 149.427 121V126.856C148.915 127.048 148.371 127.192 147.795 127.288C147.219 127.384 146.547 127.432 145.779 127.432ZM134.355 109.336V103.528H149.427V109.336H134.355ZM164.257 127.48C161.921 127.48 159.873 126.984 158.113 125.992C156.353 124.968 154.993 123.544 154.033 121.72C153.073 119.896 152.593 117.752 152.593 115.288C152.593 112.856 153.073 110.728 154.033 108.904C154.993 107.048 156.353 105.608 158.113 104.584C159.873 103.528 161.921 103 164.257 103C166.625 103 168.673 103.528 170.401 104.584C172.161 105.64 173.521 107.096 174.481 108.952C175.441 110.776 175.921 112.872 175.921 115.24C175.921 115.592 175.905 115.944 175.873 116.296C175.873 116.616 175.841 116.888 175.777 117.112H157.729V112.408H171.025L170.065 114.664C170.065 112.68 169.585 111.064 168.625 109.816C167.697 108.568 166.241 107.944 164.257 107.944C162.529 107.944 161.137 108.488 160.081 109.576C159.025 110.632 158.497 112.056 158.497 113.848V116.392C158.497 118.28 159.025 119.768 160.081 120.856C161.169 121.912 162.641 122.44 164.497 122.44C166.129 122.44 167.409 122.104 168.337 121.432C169.265 120.76 170.065 119.928 170.737 118.936L175.105 121.432C174.049 123.384 172.609 124.888 170.785 125.944C168.993 126.968 166.817 127.48 164.257 127.48ZM184.47 103.528L186.054 110.008V127H179.766V103.528H184.47ZM184.758 113.224L183.606 112.696V107.896L184.038 107.368C184.39 106.792 184.918 106.168 185.622 105.496C186.358 104.824 187.19 104.248 188.118 103.768C189.078 103.256 190.07 103 191.094 103C191.606 103 192.07 103.032 192.486 103.096C192.902 103.16 193.222 103.272 193.446 103.432V109.144H191.91C189.83 109.144 188.23 109.48 187.11 110.152C185.99 110.792 185.206 111.816 184.758 113.224Z" fill="black"/>
<line x1="80" y1="8.74228e-08" x2="80" y2="78" stroke="black" stroke-width="4"/>
<line x1="158" y1="8.74228e-08" x2="158" y2="78" stroke="black" stroke-width="4"/>
</svg>
