<svg width="234" height="131" viewBox="0 0 234 131" fill="none" xmlns="http://www.w3.org/2000/svg">
<path d="M27.1875 23.7344H37.8516C42.4141 23.7344 45.8672 24.375 48.2109 25.6562C50.5547 26.9375 51.7266 29.1875 51.7266 32.4062C51.7266 33.7031 51.5156 34.875 51.0938 35.9219C50.6875 36.9688 50.0938 37.8281 49.3125 38.5C48.5312 39.1719 47.5781 39.6094 46.4531 39.8125V40.0469C47.5938 40.2812 48.625 40.6875 49.5469 41.2656C50.4688 41.8281 51.2031 42.6562 51.75 43.75C52.3125 44.8281 52.5938 46.2656 52.5938 48.0625C52.5938 50.1406 52.0859 51.9219 51.0703 53.4062C50.0547 54.8906 48.6016 56.0312 46.7109 56.8281C44.8359 57.6094 42.6016 58 40.0078 58H27.1875V23.7344ZM34.4531 37.3047H38.6719C40.7812 37.3047 42.2422 36.9766 43.0547 36.3203C43.8672 35.6484 44.2734 34.6641 44.2734 33.3672C44.2734 32.0547 43.7891 31.1172 42.8203 30.5547C41.8672 29.9766 40.3516 29.6875 38.2734 29.6875H34.4531V37.3047ZM34.4531 43.0703V52H39.1875C41.375 52 42.8984 51.5781 43.7578 50.7344C44.6172 49.8906 45.0469 48.7578 45.0469 47.3359C45.0469 46.4922 44.8594 45.75 44.4844 45.1094C44.1094 44.4688 43.4766 43.9688 42.5859 43.6094C41.7109 43.25 40.5 43.0703 38.9531 43.0703H34.4531Z" fill="black"/>
<path d="M211.008 58H202.711L194.742 45.0391L186.773 58H178.992L190.359 40.3281L179.719 23.7344H187.734L195.117 36.0625L202.359 23.7344H210.188L199.43 40.7266L211.008 58Z" fill="black"/>
<path d="M133.312 40.8203C133.312 43.4609 132.984 45.8672 132.328 48.0391C131.672 50.1953 130.672 52.0547 129.328 53.6172C128 55.1797 126.312 56.3828 124.266 57.2266C122.219 58.0547 119.797 58.4688 117 58.4688C114.203 58.4688 111.781 58.0547 109.734 57.2266C107.688 56.3828 105.992 55.1797 104.648 53.6172C103.32 52.0547 102.328 50.1875 101.672 48.0156C101.016 45.8438 100.688 43.4297 100.688 40.7734C100.688 37.2266 101.266 34.1406 102.422 31.5156C103.594 28.875 105.391 26.8281 107.812 25.375C110.234 23.9219 113.312 23.1953 117.047 23.1953C120.766 23.1953 123.82 23.9219 126.211 25.375C128.617 26.8281 130.398 28.875 131.555 31.5156C132.727 34.1562 133.312 37.2578 133.312 40.8203ZM108.305 40.8203C108.305 43.2109 108.602 45.2734 109.195 47.0078C109.805 48.7266 110.75 50.0547 112.031 50.9922C113.312 51.9141 114.969 52.375 117 52.375C119.062 52.375 120.734 51.9141 122.016 50.9922C123.297 50.0547 124.227 48.7266 124.805 47.0078C125.398 45.2734 125.695 43.2109 125.695 40.8203C125.695 37.2266 125.023 34.3984 123.68 32.3359C122.336 30.2734 120.125 29.2422 117.047 29.2422C115 29.2422 113.328 29.7109 112.031 30.6484C110.75 31.5703 109.805 32.8984 109.195 34.6328C108.602 36.3516 108.305 38.4141 108.305 40.8203Z" fill="black"/>
<rect x="2" y="2" width="230" height="74" stroke="black" stroke-width="4"/>
<path d="M50.6562 130.469C48.3438 130.469 46.3047 129.992 44.5391 129.039C42.7734 128.086 41.3984 126.633 40.4141 124.68C39.4297 122.727 38.9375 120.266 38.9375 117.297C38.9375 114.188 39.4531 111.648 40.4844 109.68C41.5312 107.695 42.9688 106.227 44.7969 105.273C46.625 104.32 48.7031 103.844 51.0312 103.844C52.3125 103.844 53.5469 103.977 54.7344 104.242C55.9375 104.492 56.9219 104.812 57.6875 105.203L56.5156 108.461C55.7344 108.148 54.8281 107.867 53.7969 107.617C52.7812 107.367 51.8281 107.242 50.9375 107.242C49.1562 107.242 47.6719 107.625 46.4844 108.391C45.3125 109.156 44.4297 110.281 43.8359 111.766C43.2578 113.25 42.9688 115.078 42.9688 117.25C42.9688 119.328 43.25 121.102 43.8125 122.57C44.3906 124.039 45.2422 125.164 46.3672 125.945C47.5078 126.711 48.9297 127.094 50.6328 127.094C51.9922 127.094 53.2188 126.953 54.3125 126.672C55.4062 126.375 56.3984 126.031 57.2891 125.641V129.109C56.4297 129.547 55.4688 129.883 54.4062 130.117C53.3594 130.352 52.1094 130.469 50.6562 130.469ZM67.2734 93.5312V104.43C67.2734 105.055 67.2578 105.688 67.2266 106.328C67.1953 106.953 67.1406 107.531 67.0625 108.062H67.3203C67.8516 107.156 68.5234 106.398 69.3359 105.789C70.1641 105.164 71.1016 104.695 72.1484 104.383C73.1953 104.055 74.3047 103.891 75.4766 103.891C77.5391 103.891 79.2578 104.219 80.6328 104.875C82.0234 105.531 83.0625 106.547 83.75 107.922C84.4531 109.297 84.8047 111.078 84.8047 113.266V130H80.9609V113.523C80.9609 111.383 80.4688 109.781 79.4844 108.719C78.5156 107.656 77.0234 107.125 75.0078 107.125C73.1016 107.125 71.5781 107.492 70.4375 108.227C69.3125 108.945 68.5 110.008 68 111.414C67.5156 112.82 67.2734 114.539 67.2734 116.57V130H63.3828V93.5312H67.2734ZM102.43 103.891C105.492 103.891 107.766 104.578 109.25 105.953C110.734 107.328 111.477 109.523 111.477 112.539V130H108.641L107.891 126.203H107.703C106.984 127.141 106.234 127.93 105.453 128.57C104.672 129.195 103.766 129.672 102.734 130C101.719 130.312 100.469 130.469 98.9844 130.469C97.4219 130.469 96.0312 130.195 94.8125 129.648C93.6094 129.102 92.6562 128.273 91.9531 127.164C91.2656 126.055 90.9219 124.648 90.9219 122.945C90.9219 120.383 91.9375 118.414 93.9688 117.039C96 115.664 99.0938 114.914 103.25 114.789L107.68 114.602V113.031C107.68 110.812 107.203 109.258 106.25 108.367C105.297 107.477 103.953 107.031 102.219 107.031C100.875 107.031 99.5938 107.227 98.375 107.617C97.1562 108.008 96 108.469 94.9062 109L93.7109 106.047C94.8672 105.453 96.1953 104.945 97.6953 104.523C99.1953 104.102 100.773 103.891 102.43 103.891ZM107.633 117.344L103.719 117.508C100.516 117.633 98.2578 118.156 96.9453 119.078C95.6328 120 94.9766 121.305 94.9766 122.992C94.9766 124.461 95.4219 125.547 96.3125 126.25C97.2031 126.953 98.3828 127.305 99.8516 127.305C102.133 127.305 104 126.672 105.453 125.406C106.906 124.141 107.633 122.242 107.633 119.711V117.344ZM131.164 103.844C131.68 103.844 132.219 103.875 132.781 103.938C133.344 103.984 133.844 104.055 134.281 104.148L133.789 107.758C133.367 107.648 132.898 107.562 132.383 107.5C131.867 107.438 131.383 107.406 130.93 107.406C129.898 107.406 128.922 107.617 128 108.039C127.094 108.445 126.297 109.039 125.609 109.82C124.922 110.586 124.383 111.516 123.992 112.609C123.602 113.688 123.406 114.891 123.406 116.219V130H119.492V104.312H122.727L123.148 109.047H123.312C123.844 108.094 124.484 107.227 125.234 106.445C125.984 105.648 126.852 105.016 127.836 104.547C128.836 104.078 129.945 103.844 131.164 103.844ZM147.43 127.281C148.07 127.281 148.727 127.227 149.398 127.117C150.07 127.008 150.617 126.875 151.039 126.719V129.742C150.586 129.945 149.953 130.117 149.141 130.258C148.344 130.398 147.562 130.469 146.797 130.469C145.438 130.469 144.203 130.234 143.094 129.766C141.984 129.281 141.094 128.469 140.422 127.328C139.766 126.188 139.438 124.609 139.438 122.594V107.359H135.781V105.461L139.461 103.938L141.008 98.3594H143.352V104.312H150.875V107.359H143.352V122.477C143.352 124.086 143.719 125.289 144.453 126.086C145.203 126.883 146.195 127.281 147.43 127.281ZM166.133 103.844C168.32 103.844 170.195 104.328 171.758 105.297C173.32 106.266 174.516 107.625 175.344 109.375C176.172 111.109 176.586 113.141 176.586 115.469V117.883H158.844C158.891 120.898 159.641 123.195 161.094 124.773C162.547 126.352 164.594 127.141 167.234 127.141C168.859 127.141 170.297 126.992 171.547 126.695C172.797 126.398 174.094 125.961 175.438 125.383V128.805C174.141 129.383 172.852 129.805 171.57 130.07C170.305 130.336 168.805 130.469 167.07 130.469C164.602 130.469 162.445 129.969 160.602 128.969C158.773 127.953 157.352 126.469 156.336 124.516C155.32 122.562 154.812 120.172 154.812 117.344C154.812 114.578 155.273 112.188 156.195 110.172C157.133 108.141 158.445 106.578 160.133 105.484C161.836 104.391 163.836 103.844 166.133 103.844ZM166.086 107.031C164.008 107.031 162.352 107.711 161.117 109.07C159.883 110.43 159.148 112.328 158.914 114.766H172.508C172.492 113.234 172.25 111.891 171.781 110.734C171.328 109.562 170.633 108.656 169.695 108.016C168.758 107.359 167.555 107.031 166.086 107.031ZM194.867 103.844C195.383 103.844 195.922 103.875 196.484 103.938C197.047 103.984 197.547 104.055 197.984 104.148L197.492 107.758C197.07 107.648 196.602 107.562 196.086 107.5C195.57 107.438 195.086 107.406 194.633 107.406C193.602 107.406 192.625 107.617 191.703 108.039C190.797 108.445 190 109.039 189.312 109.82C188.625 110.586 188.086 111.516 187.695 112.609C187.305 113.688 187.109 114.891 187.109 116.219V130H183.195V104.312H186.43L186.852 109.047H187.016C187.547 108.094 188.188 107.227 188.938 106.445C189.688 105.648 190.555 105.016 191.539 104.547C192.539 104.078 193.648 103.844 194.867 103.844Z" fill="black"/>
<line x1="80" y1="8.74228e-08" x2="80" y2="78" stroke="black" stroke-width="4"/>
<line x1="158" y1="8.74228e-08" x2="158" y2="78" stroke="black" stroke-width="4"/>
</svg>
